# AST/ASF file generated using VICON BodyLanguage
# -----------------------------------------------
:version 1.10
:name VICON
:units
  mass 1.0
  length 0.45
  angle deg
:documentation
   .ast/.asf automatically generated from VICON data using
   VICON BodyBuilder and BodyLanguage model FoxedUp or BRILLIANT.MOD
:root
   order TX TY TZ RX RY RZ
   axis XYZ
   position 0 0 0  
   orientation 0 0 0 
:bonedata
  begin
     id 1 
     name lhipjoint
     direction 0.537252 -0.787203 0.302774 
     length 2.29576 
     axis 0 0 0  XYZ
  end
  begin
     id 2 
     name lfemur
     direction 0.34202 -0.939693 0  
     length 7.31114  
     axis 0 0 20  XYZ
    dof rx ry rz
    limits (-160.0 20.0)
           (-70.0 70.0)
           (-60.0 70.0)
  end
  begin
     id 3 
     name ltibia
     direction 0.34202 -0.939693 0   
     length 8.36008   
     axis 0 0 20   XYZ
    dof rx
    limits (-10.0 170.0)
  end
  begin
     id 4 
     name lfoot
     direction 0.0969116 -0.266263 0.959016   
     length 2.16704   
     axis -90 7.62852e-016 20   XYZ
    dof rx rz
    limits (-45.0 90.0)
           (-70.0 20.0)
  end
  begin
     id 5 
     name ltoes
     direction 1.53563e-011 -4.21779e-011 1   
     length 1.08338   
     axis -90 7.62852e-016 20   XYZ
    dof rx
    limits (-90.0 20.0)
  end
  begin
     id 6 
     name rhipjoint
     direction -0.588228 -0.754791 0.290308   
     length 2.39434  
     axis 0 0 0  XYZ 
  end
  begin
     id 7 
     name rfemur
     direction -0.34202 -0.939693 0   
     length 7.45207   
     axis 0 0 -20   XYZ
    dof rx ry rz
    limits (-160.0 20.0)
           (-70.0 70.0)
           (-70.0 60.0)
  end
  begin
     id 8 
     name rtibia
     direction -0.34202 -0.939693 0   
     length 8.03565   
     axis 0 0 -20   XYZ
    dof rx
    limits (-10.0 170.0)
 end
 begin
     id 9 
     name rfoot
     direction -0.107009 -0.294004 0.949795   
     length 2.11509  
     axis -90 -7.62852e-016 -20   XYZ
    dof rx rz
    limits (-45.0 90.0)
           (-20.0 70.0)
  end
  begin
     id 10 
     name rtoes
     direction -1.53533e-011 -4.22004e-011 1   
     length 1.05493   
     axis -90 -7.62852e-016 -20   XYZ
    dof rx
    limits (-90.0 20.0)
  end
  begin
     id 11 
     name lowerback
     direction -0.0115208 0.997969 -0.0626515   
     length 2.03153   
     axis 0 0 0   XYZ
    dof rx ry rz
    limits (-20.0 45.0)
           (-30.0 30.0)
           (-30.0 30.0)
  end
  begin
     id 12 
     name upperback
     direction -0.00423475 0.999974 -0.00583614   
     length 2.03619   
     axis 0 0 0   XYZ
    dof rx ry rz
    limits (-20.0 45.0)
           (-30.0 30.0)
           (-30.0 30.0)
  end
  begin
     id 13 
     name thorax
     direction 0.00289429 0.999728 0.0231573   
     length 2.03921   
     axis 0 0 0   XYZ
    dof rx ry rz
    limits (-20.0 45.0)
           (-30.0 30.0)
           (-30.0 30.0)
  end
  begin
     id 14 
     name lowerneck
     direction 0.0188995 0.987777 0.154721   
     length 1.78836   
     axis 0 0 0   XYZ
    dof rx ry rz
    limits (-20.0 45.0)
           (-30.0 30.0)
           (-30.0 30.0)
  end
  begin
     id 15 
     name upperneck
     direction -0.00612612 0.992995 -0.118   
     length 1.81789   
     axis 0 0 0   XYZ
    dof rx ry rz
    limits (-20.0 45.0)
           (-30.0 30.0)
           (-30.0 30.0)
  end
  begin
     id 16
     name head
     direction -0.00420226 0.998397 -0.0564482  
     length 1.82234  
     axis 0 0 0   XYZ
    dof rx ry rz
    limits (-20.0 45.0)
           (-30.0 30.0)
           (-30.0 30.0)
  end
  begin
     id 17 
     name lclavicle
     direction 0.916488 0.396539 0.0529676  
     length 3.51732  
     axis 0 0 0   XYZ
    dof ry rz
    limits (-20.0 10.0)
           (0.0 20.0)
  end
  begin
     id 18 
     name lhumerus
     direction 1 -4.4896e-011 8.36962e-028   
     length 5.45077   
     axis 180 -30 -90   XYZ
    dof rx ry rz
    limits (-60.0 90.0)
           (-90.0 90.0)
           (-90.0 90.0)
  end
  begin
     id 19
     name lradius
     direction 1 -4.48962e-011 3.01407e-027   
     length 3.05488   
     axis 180 -30 -90   XYZ
    dof rx
    limits (-10.0 170.0)
  end
  begin
     id 20
     name lwrist
     direction 1 -4.49002e-011 4.72961e-027   
     length 1.52744   
     axis -2.72261e-015 90 90   XYZ
    dof ry
    limits (-180.0 0.0)
 end
  begin
     id 21 
     name lhand
     direction 1 -4.4899e-011 9.45681e-027   
     length 0.638818   
     axis -6.0311e-015 90 90   XYZ
    dof rx rz
    limits (-90.0 90.0)
           (-45.0 45.0)
  end
  begin
     id 22 
     name lfingers
     direction 1 -4.48871e-011 1.88632e-026   
     length 0.515032   
     axis -1.20625e-014 90 90   XYZ
    dof rx
    limits (0.0 90.0)
  end
  begin
     id 23
     name lthumb
     direction 0.707107 -6.34964e-011 0.707107   
     length 0.739485   
     axis -90 45 6.32835e-014   XYZ
    dof rx rz
    limits (-45.0 45.0)
           (-45.0 45.0)
  end
  begin
     id 24 
     name rclavicle
     direction -0.949427 0.303202 0.0815894   
     length 3.76167  
     axis 0 0 0   XYZ 
    dof ry rz
    limits (-10.0 20.0)
           (-20.0 0.0)
  end
  begin
     id 25 
     name rhumerus
     direction -1 -4.48971e-011 -6.43969e-018  
     length 4.88702   
     axis 180 30 90   XYZ
    dof rx ry rz
    limits (-90.0 60.0)
           (-90.0 90.0)
           (-90.0 90.0)
  end
  begin
     id 26 
     name rradius
     direction -1 -4.48987e-011 5.46662e-027   
     length 3.22603   
     axis 180 30 90   XYZ
    dof rx
    limits (-10.0 170.0)
  end
  begin
     id 27 
     name rwrist
     direction -1 -4.48956e-011 4.72476e-027   
     length 1.61302   
     axis -2.72261e-015 -90 -90   XYZ
    dof ry
    limits (-180.0 0.0)
  end
  begin
     id 28
     name rhand
     direction -1 -4.4889e-011 9.43571e-027   
     length 0.716293   
     axis -6.0311e-015 -90 -90   XYZ
    dof rx rz
    limits (-90.0 90.0)
           (-45.0 45.0)
  end
  begin
     id 29
     name rfingers
     direction -1 -4.48887e-011 1.88701e-026   
     length 0.577494   
     axis -1.20625e-014 -90 -90   XYZ
    dof rx
    limits (0.0 90.0)
  end
  begin
     id 30
     name rthumb
     direction -0.707107 -6.34825e-011 0.707107   
     length 0.829169   
     axis -90 -45 -6.32835e-014   XYZ
    dof rx rz
    limits (-45.0 45.0)
           (-45.0 45.0)
  end
:hierarchy
  begin
    root lhipjoint rhipjoint lowerback
    lhipjoint lfemur
    lfemur ltibia
    ltibia lfoot
    lfoot ltoes
    rhipjoint rfemur
    rfemur rtibia
    rtibia rfoot
    rfoot rtoes
    lowerback upperback
    upperback thorax
    thorax lowerneck lclavicle rclavicle
    lowerneck upperneck
    upperneck head
    lclavicle lhumerus
    lhumerus lradius
    lradius lwrist
    lwrist lhand lthumb
    lhand lfingers
    rclavicle rhumerus
    rhumerus rradius
    rradius rwrist
    rwrist rhand rthumb
    rhand rfingers
  end

#!OML:ASF F:\VICON\USERDATA\INSTALL\rory3\rory3.ASF
:FULLY-SPECIFIED
:DEGREES
2036
root 0.309909 18.3516 -1.10676 60.892 66.702 37.8618
lowerback 10.2721 0.180058 12.6939
upperback 4.25134 2.05791 8.4204
thorax -1.16527 1.2404 1.54143
lowerneck -7.8289 -19.4361 -8.97349
upperneck 14.4138 -27.5687 16.2294
head 9.39328 -12.2718 3.15021
rclavicle -1.59028e-014 2.54444e-014
rhumerus 19.2422 -45.6888 -54.8746
rradius 45.5668
rwrist -32.9485
rhand -32.1891 3.00456
rfingers 7.12502
rthumb -5.43131 -26.9058
lclavicle -1.59028e-014 2.54444e-014
lhumerus -79.9663 -37.1037 111.891
lradius 83.5333
lwrist -10.668
lhand -27.0554 5.00648
lfingers 7.12502
lthumb -0.47357 34.9857
rfemur -36.0014 2.67497 -8.94802
rtibia 17.9271
rfoot -7.46462 5.46385
rtoes -18.2824
lfemur -30.705 22.7587 -48.9437
ltibia 10.9468
lfoot -4.93864 -13.8839
ltoes -9.36464
2037
root 0.298613 18.346 -1.10998 61.0162 66.5631 37.8682
lowerback 10.3209 0.195709 12.7237
upperback 4.29358 2.08068 8.36644
thorax -1.14188 1.25331 1.46542
lowerneck -7.86735 -19.3948 -8.92542
upperneck 14.421 -27.5271 16.2905
head 9.40077 -12.2421 3.16762
rclavicle -1.59028e-014 -8.5875e-014
rhumerus 19.131 -45.6151 -55.3149
rradius 45.3552
rwrist -32.9447
rhand -32.0726 2.87388
rfingers 7.12502
rthumb -5.31886 -27.0394
lclavicle -1.59028e-014 -8.5875e-014
lhumerus -79.972 -37.1952 111.863
lradius 83.4996
lwrist -10.5942
lhand -27.234 4.97971
lfingers 7.12502
lthumb -0.64607 34.9585
rfemur -36.27 2.69849 -9.12447
rtibia 18.0633
rfoot -7.52118 5.42174
rtoes -17.9549
lfemur -30.9666 22.9008 -49.2358
ltibia 10.9821
lfoot -4.92358 -14.0251
ltoes -9.36865
2038
root 0.286685 18.3399 -1.11373 61.1814 66.375 37.9976
lowerback 10.4707 0.196389 12.6757
upperback 4.37147 2.09173 8.31061
thorax -1.14036 1.26018 1.42901
lowerneck -8.0911 -19.359 -8.75645
upperneck 14.5025 -27.4854 16.1891
head 9.42156 -12.2043 3.10481
rclavicle -2.8625e-014 -3.49861e-014
rhumerus 19.0338 -45.4336 -55.6708
rradius 45.218
rwrist -33.0824
rhand -32.1348 2.81785
rfingers 7.12502
rthumb -5.37893 -27.0939
lclavicle -2.8625e-014 -3.49861e-014
lhumerus -79.8551 -37.2861 111.766
lradius 83.4995
lwrist -10.5639
lhand -27.217 5.05781
lfingers 7.12502
lthumb -0.629663 35.0366
rfemur -36.47 2.65898 -9.3277
rtibia 18.1944
rfoot -7.48292 5.45349
rtoes -17.7826
lfemur -31.1223 23.0546 -49.5546
ltibia 10.9941
lfoot -4.80492 -14.2063
ltoes -8.85237
2039
root 0.27393 18.3366 -1.11679 61.2163 66.2627 37.9893
lowerback 10.6768 0.194728 12.6921
upperback 4.40417 2.12538 8.28388
thorax -1.21514 1.27455 1.38466
lowerneck -8.28639 -19.3034 -8.60257
upperneck 14.6334 -27.4206 16.0781
head 9.45221 -12.1545 3.04708
rclavicle -3.81667e-014 2.8625e-014
rhumerus 18.9985 -45.3851 -56.1484
rradius 45.1149
rwrist -33.0448
rhand -32.0615 2.68095
rfingers 7.12502
rthumb -5.30813 -27.2326
lclavicle -3.81667e-014 2.8625e-014
lhumerus -79.882 -37.3721 111.761
lradius 83.5888
lwrist -10.5738
lhand -27.0613 5.0911
lfingers 7.12502
lthumb -0.479307 35.0703
rfemur -36.6459 2.68828 -9.44888
rtibia 18.2805
rfoot -7.47225 5.4372
rtoes -17.6165
lfemur -31.2473 23.1675 -49.7427
ltibia 10.9742
lfoot -4.71586 -14.3189
ltoes -8.68943
2040
root 0.264928 18.3374 -1.11776 61.1053 66.2872 37.7904
lowerback 10.7808 0.194979 12.7991
upperback 4.42207 2.1598 8.33235
thorax -1.24851 1.29257 1.37353
lowerneck -8.30975 -19.2665 -8.65863
upperneck 14.6976 -27.3782 16.1192
head 9.48835 -12.1271 3.06966
rclavicle 6.04305e-014 1.7175e-013
rhumerus 18.8664 -45.2485 -56.4682
rradius 45.0773
rwrist -33.0622
rhand -32.0862 2.65075
rfingers 7.12502
rthumb -5.33196 -27.2622
lclavicle 6.04305e-014 1.7175e-013
lhumerus -79.8844 -37.3809 111.783
lradius 83.6404
lwrist -10.6268
lhand -26.9734 4.98244
lfingers 7.12502
lthumb -0.39437 34.9618
rfemur -36.8013 2.69718 -9.37118
rtibia 18.3255
rfoot -7.50192 5.39192
rtoes -18.0994
lfemur -31.4063 23.2715 -49.7698
ltibia 10.9579
lfoot -4.61319 -14.4398
ltoes -8.55063
